<svg width="51" height="1679" viewBox="0 0 51 1679" fill="none" xmlns="http://www.w3.org/2000/svg">
<path d="M25.5 0V314C11.5 314 0.5 326 0.5 339C0.5 352 10.5 364 25.5 364C40.5 364 50.5 353 50.5 339C50.5 325 27.5 318 25.5 339V636V654.5C13 654.5 0.5 664 0.5 679C0.5 694 11.5 703 25.5 703C39.5 703 50 692.5 50 679C48.7307 664.367 25.5 660 25.5 679V979V994.5C13 994.5 0.499993 1003.5 0.5 1019C0.50001 1034.5 11.8457 1044.15 25.5 1043.5C36.0163 1043 49.9852 1035.18 50 1019C50.0148 1002.82 27.9963 1000.64 25.5 1019V1327C25.5 1327 25.5 1333.7 25.5 1338C12.5 1338 0.5 1348.5 0.5 1363C0.5 1377.5 13 1388 25.5 1388C38 1388 50.4422 1381.19 50.5 1363C50.5578 1344.81 25.5 1346 25.5 1363C25.5 1380 25.5 1670 25.5 1670V1678.5" stroke="black"/>
</svg>
